<?xml version="1.0" encoding="UTF-8" standalone="no"?>
<svg width="66px" height="23px" viewBox="0 0 66 23" version="1.1" xmlns="http://www.w3.org/2000/svg" xmlns:xlink="http://www.w3.org/1999/xlink">
    <!-- Generator: Sketch 3.8.3 (29802) - http://www.bohemiancoding.com/sketch -->
    <title>Logo_White</title>
    <desc>Created with Sketch.</desc>
    <defs>
        <polygon id="path-1" points="0.149025 22.6953642 19.273275 22.6953642 19.273275 0.0292460834 0.149025 0.0292460834 0.149025 22.6953642"></polygon>
        <polygon id="path-3" points="11.90808 0.0313774834 0.09723 0.0313774834 0.09723 22.6953185 11.90808 22.6953185 11.90808 0.0313774834"></polygon>
    </defs>
    <g id="Page-1" stroke="none" stroke-width="1" fill="none" fill-rule="evenodd">
        <g id="01_Home_1" transform="translate(-70.000000, -21.000000)">
            <g id="Logo_White" transform="translate(70.000000, 21.000000)">
                <g id="Group-3" transform="translate(46.650000, 0.273258)">
                    <mask id="mask-2" fill="white">
                        <use xlink:href="#path-1"></use>
                    </mask>
                    <g id="Clip-2"></g>
                    <path d="M12.681075,12.2086285 C7.348725,12.0715424 3.839025,12.6655821 3.839025,16.6409265 C3.839025,18.9026947 5.346525,19.7252113 7.168875,19.7252113 C9.486225,19.7252113 12.096225,18.1488735 12.681075,15.9326483 L12.681075,12.2086285 Z M1.364175,2.47597285 C1.296675,2.22464834 1.364175,2.01901921 1.589025,1.88193311 C3.524025,0.716701325 6.268875,-0.0144245033 8.901225,0.0312708609 C12.816075,0.0998139073 16.348425,2.24749603 16.348425,7.45646291 L16.348425,16.3210589 C16.348425,18.4230457 16.663425,19.7709066 18.800925,19.7252113 C19.115775,19.7252113 19.273275,19.8622974 19.273275,20.1821649 L19.273275,21.8727411 C19.273275,22.1469132 19.160775,22.3296947 18.890775,22.3753901 C18.148275,22.5581715 17.360925,22.6267146 16.685925,22.5581715 C15.021075,22.4669331 13.693575,21.5530258 13.153575,19.4053437 C11.556225,21.5758735 8.901225,22.6954099 6.358875,22.6954099 C3.209025,22.6954099 0.149025,20.890443 0.149025,16.6180788 C0.149025,12.025847 3.501525,9.28427748 12.681075,9.42136358 L12.681075,7.68493974 C12.681075,4.39502583 10.588725,3.16140331 7.978725,3.16140331 C6.133875,3.16140331 4.153875,3.80098609 2.556525,4.66919801 C2.286525,4.82913179 2.061525,4.73774106 1.971675,4.44072119 L1.364175,2.47597285 Z" id="Fill-1" fill="#FFFFFF" mask="url(#mask-2)"></path>
                </g>
                <path d="M3.26235,2.93956755 C4.9947,1.36307748 7.1097,0.26654106 10.14705,0.26654106 C15.0069,0.26654106 18.13425,3.2594351 18.13425,8.4455543 L18.13425,21.9480775 C18.13425,22.2450974 17.97675,22.4050311 17.68425,22.4050311 L14.9169,22.4050311 C14.6244,22.4050311 14.4669,22.2450974 14.4669,21.9480775 L14.4669,8.58279272 C14.4669,4.92731589 12.0819,3.35082583 9.47205,3.35082583 C6.0297,3.35082583 3.66735,5.54420331 3.66735,7.12054106 L3.66735,21.9480775 C3.66735,22.2450974 3.50985,22.4050311 3.21735,22.4050311 L0.44985,22.4050311 C0.1575,22.4050311 0,22.2450974 0,21.9480775 L0,1.02036225 C0,0.723494702 0.1575,0.563560927 0.44985,0.563560927 L2.47485,0.563560927 C2.74485,0.563560927 2.90235,0.70064702 2.94735,0.974819205 L3.26235,2.93956755 Z" id="Fill-4" fill="#FFFFFF"></path>
                <path d="M34.87395,19.3634868 C35.44065,19.5747517 36.05085,19.6862483 36.69645,19.6862483 C39.78555,19.6862483 42.06915,17.4596656 42.7314,13.7860629 C42.84585,13.0256921 42.9063,12.227394 42.9063,11.3929967 C42.9063,10.8738974 42.8799,10.3695728 42.83355,9.87758609 C42.351,5.86873179 40.04775,3.28237417 36.8766,3.28237417 C36.1932,3.28237417 35.5533,3.39356623 34.96305,3.60346026 C37.5189,4.54143377 39.1716,7.47081126 39.1716,11.4842351 C39.1716,15.5736656 37.4886,18.4376987 34.87395,19.3634868" id="Fill-6" fill="#FFFFFF"></path>
                <g id="Group-10" transform="translate(23.100000, 0.120940)">
                    <mask id="mask-4" fill="white">
                        <use xlink:href="#path-3"></use>
                    </mask>
                    <g id="Clip-9"></g>
                    <path d="M3.85443,11.4547159 C3.85443,11.4355238 3.85548,11.4167887 3.85548,11.3975967 C3.85548,11.3784046 3.85458,11.3596695 3.85458,11.3404775 C3.85173,10.707749 3.89103,10.1024377 3.96843,9.52698079 C4.56963,4.51617947 7.53708,0.984384768 11.90808,0.199186093 C11.31063,0.0904311258 10.68873,0.0313317881 10.04193,0.0313317881 C4.05708,0.0313317881 0.09723,4.69210662 0.09723,11.4547159 C0.09723,18.3772589 4.19208,22.6953185 9.83928,22.6953185 C10.49568,22.6953185 11.12793,22.6365238 11.73603,22.5277689 C7.07268,21.6773781 3.85443,17.5903848 3.85443,11.4547159" id="Fill-8" fill="#FFFFFF" mask="url(#mask-4)"></path>
                </g>
            </g>
        </g>
    </g>
</svg>